<svg height="512pt" viewBox="-61 0 512 512" width="512pt" xmlns="http://www.w3.org/2000/svg"><path d="m165 512h180c8.285156 0 15-6.714844 15-15v-118.027344c19.609375-40.449218 29.976562-85.441406 30-130.375v-143.605468c0-24.808594-20.183594-44.992188-44.992188-44.992188-5.855468 0-11.449218 1.121094-16.585937 3.164062-5.207031-19.089843-22.703125-33.164062-43.429687-33.164062-5.851563 0-11.441407 1.136719-16.578126 3.179688-5.203124-19.09375-22.691406-33.179688-43.421874-33.179688-20.71875 0-38.207032 14.074219-43.414063 33.164062-5.136719-2.039062-10.730469-3.164062-16.585937-3.164062-24.808594 0-44.992188 20.183594-44.992188 44.992188v167.03125c-28.78125-9.601563-58.421875-9.828126-82.101562.886718-24.085938 10.894532-37.898438 31.820313-37.898438 57.414063 0 8.285156 6.714844 15 15 15h2.402344c35.132812-.023438 78.851562-.070313 110.902344 56.066406 13.683593 23.960937 21.28125 51.214844 21.785156 78.820313.007812 1.886718.011718 28.867187.011718 46.789062 0 8.285156 6.613282 15 14.898438 15zm-131.730469-226.527344c3.257813-6.488281 8.933594-11.582031 16.992188-15.230468 32.941406-14.894532 77.539062 2.019531 104.839843 26.023437 2.738282 2.40625 6.257813 3.734375 9.90625 3.734375 41.351563 0 75 33.644531 75 75 0 8.285156 6.714844 15 15 15 8.28125 0 15-6.714844 15-15 0-55.988281-44.054687-101.882812-99.316406-104.847656-6.585937-5.40625-13.527344-10.21875-20.691406-14.433594v-180.726562c0-8.265626 6.726562-14.992188 14.992188-14.992188 8.277343 0 15.007812 6.726562 15.007812 14.992188v150.007812c0 8.285156 6.714844 15 15 15s15-6.714844 15-15v-180.007812c0-8.265626 6.726562-14.992188 14.992188-14.992188 8.277343 0 15.007812 6.726562 15.007812 14.992188v180.007812c0 8.285156 6.714844 15 15 15s15-6.714844 15-15v-150.007812c0-8.265626 6.726562-14.992188 14.992188-14.992188 8.277343 0 15.007812 6.726562 15.007812 14.992188v150.007812c0 8.285156 6.714844 15 15 15s15-6.714844 15-15v-120.007812c0-8.265626 6.730469-14.992188 15.007812-14.992188 8.265626 0 14.992188 6.726562 14.992188 14.992188v143.597656c-.023438 41.492187-9.851562 83.050781-28.414062 120.179687-1.042969 2.085938-1.585938 4.382813-1.585938 6.710938v106.519531h-150s-.015625-32.015625-.027344-32.265625h.015625c-.585937-32.644531-9.445312-64.882813-25.628906-93.222656-28.714844-50.285157-67.992187-69.53125-121.089844-71.039063zm0 0"/></svg>