<svg height="512pt" viewBox="-106 0 512 512.0003" width="512pt" xmlns="http://www.w3.org/2000/svg"><path d="m0 248.398438c0 45.003906 10.367188 90.066406 30 130.5625v118.039062c0 8.285156 6.71875 15 15 15h180c8.285156 0 15-6.714844 15-15v-85.507812c2.515625-2.5625 6.703125-6.808594 13.6875-13.839844 29.863281-30.074219 46.3125-69.984375 46.3125-112.367188 0-32.578125-20.589844-59.929687-48.710938-70.5l44.972657-157.398437c6.816406-23.851563-7.042969-48.8125-30.878907-55.628907-24.203124-6.957031-48.949218 7.4375-55.652343 30.890626l-16.734375 58.566406-16.742188-58.585938c-6.839844-23.808594-31.785156-37.664062-55.632812-30.875-23.851563 6.824219-37.710938 31.78125-30.890625 55.628906l18.054687 63.191407c-.921875-.054688-1.847656-.09375-2.785156-.09375-20.722656 0-38.207031 14.085937-43.414062 33.179687-5.136719-2.042968-10.730469-3.179687-16.585938-3.179687-24.8125 0-45 20.1875-45 45zm270 36.886718c0 34.410156-13.351562 66.808594-37.601562 91.226563-5.074219 5.109375-9.601563 9.6875-12.867188 13.007812-7.128906 7.257813-9.53125 9.703125-9.53125 15.960938v76.519531h-150v-106.519531c0-2.324219-.632812-4.804688-1.582031-6.707031-15.644531-31.289063-25.078125-65.722657-27.679688-100.621094 4.488281 1.5 9.277344 2.328125 14.265625 2.328125 11.515625 0 22.03125-4.355469 30-11.496094 7.964844 7.144531 18.480469 11.496094 29.996094 11.496094 9.339844 0 18.023438-2.863281 25.222656-7.75 7.25 12.398437 17.949219 22.535156 30.78125 29.089843-24.917968 19.214844-41.003906 49.351563-41.003906 83.179688 0 8.285156 6.71875 15 15 15 8.285156 0 15-6.714844 15-15 0-41.355469 33.648438-75 75-75 8.285156 0 15-6.714844 15-15s-6.714844-15-15-15c-18.519531 0-11.578125 0-30 0-19.554688 0-36.238281-12.539062-42.429688-30h72.433594c24.820313 0 44.996094 20.359375 44.996094 45.285156zm-141.148438-254.683594c7.957032-2.261718 16.285157 2.359376 18.5625 10.289063l31.15625 109.042969c1.839844 6.4375 7.726563 10.878906 14.425782 10.878906 6.695312 0 12.582031-4.441406 14.421875-10.878906l31.15625-109.042969c2.203125-7.707031 10.34375-12.648437 18.542969-10.296875 7.953124 2.277344 12.570312 10.597656 10.296874 18.550781l-45.957031 160.855469h-71.457031v-44.519531c0-4.050781-.542969-8.257813-1.84375-12.800781l-29.582031-103.539063c-2.273438-7.953125 2.347656-16.269531 10.277343-18.539063zm-38.851562 134.878907c0-8.269531 6.730469-15 15-15 8.273438 0 15 6.730469 15 15v60c0 8.269531-6.726562 15-15 15-8.269531 0-15-6.730469-15-15 0-7.257813 0-52.691407 0-60zm-45 15c8.273438 0 15 6.730469 15 15v30c0 8.269531-6.726562 15-15 15-8.269531 0-15-6.730469-15-15v-30c0-8.269531 6.730469-15 15-15zm0 0"/></svg>